<svg xmlns="http://www.w3.org/2000/svg" version="1.1" xmlns:xlink="http://www.w3.org/1999/xlink" xmlns:svgjs="http://svgjs.dev/svgjs" width="1000" height="606" viewBox="0 0 1000 606"><g transform="matrix(1,0,0,1,-0.6060606060606233,0.07515338270360417)"><svg viewBox="0 0 396 240" data-background-color="#ffffff" preserveAspectRatio="xMidYMid meet" height="606" width="1000" xmlns="http://www.w3.org/2000/svg" xmlns:xlink="http://www.w3.org/1999/xlink"><g id="tight-bounds" transform="matrix(1,0,0,1,0.2400000000000091,-0.02976371592221483)"><svg viewBox="0 0 395.52 240.05952406281457" height="240.05952406281457" width="395.52"><g><svg viewBox="0 0 395.52 240.05952406281457" height="240.05952406281457" width="395.52"><g><svg viewBox="0 0 397.4975999999999 241.25982168312862" height="240.05952406281457" width="395.52"><g><rect width="397.4975999999999" height="7.389469690778008" x="0" y="132.58579209179283" fill="#cdedf6" opacity="1" stroke-width="0" stroke="transparent" fill-opacity="1" class="rect-o-0" data-fill-palette-color="secondary" rx="1%" id="o-0" data-palette-color="#cdedf6"></rect></g><g transform="matrix(1,0,0,1,0.9887999999999693,159.3194232767541)"><svg viewBox="0 0 395.52 81.9403984063745" height="81.9403984063745" width="395.52"><g id="textblocktransform"><svg viewBox="0 0 395.52 81.9403984063745" height="81.9403984063745" width="395.52" id="textblock"><g><svg viewBox="0 0 395.52 81.9403984063745" height="81.9403984063745" width="395.52"><g transform="matrix(1,0,0,1,0,0)"><svg width="395.52" viewBox="-2.490000009536743 -39.11000061035156 196.07000732421875 40.619998931884766" height="81.9403984063745" data-palette-color="#5eb1bf"><path d="M22.61-33.35L22.61-33.35Q22.61-32.13 21.66-31.13 20.7-30.13 19.36-29.37 18.02-28.61 16.6-28.13 15.19-27.64 14.26-27.44L14.26-27.44Q13.87-23.68 13.65-19.95 13.43-16.21 13.43-12.45L13.43-12.45Q13.43-10.45 13.53-8.5 13.62-6.54 13.62-4.59L13.62-4.59Q13.62-3.71 13.45-2.66 13.28-1.61 12.87-0.68 12.45 0.24 11.72 0.88 10.99 1.51 9.91 1.51L9.91 1.51Q8.64 1.51 7.89 0.81 7.13 0.1 6.71-0.93 6.3-1.95 6.15-3.1 6.01-4.25 6.01-5.18L6.01-5.18Q5.91-8.11 5.86-11.06 5.81-14.01 5.81-16.99L5.81-16.99Q5.81-19.48 5.83-21.88 5.86-24.27 5.86-26.76L5.86-26.76Q5.18-26.66 4.47-26.61 3.76-26.56 3.03-26.56L3.03-26.56Q2.44-26.56 1.49-26.68 0.54-26.81-0.34-27.12-1.22-27.44-1.86-28-2.49-28.56-2.49-29.44L-2.49-29.44Q-2.49-30.91-1.34-32.01-0.2-33.11 1.59-33.91 3.37-34.72 5.54-35.28 7.71-35.84 9.84-36.16 11.96-36.47 13.75-36.62 15.53-36.77 16.5-36.77L16.5-36.77Q17.43-36.77 18.48-36.69 19.53-36.62 20.46-36.28 21.39-35.94 22-35.25 22.61-34.57 22.61-33.35ZM37.01-18.26L37.01-18.26Q36.33-18.21 35.84-18.38 35.35-18.55 34.86-18.75L34.86-18.75Q34.42-18.95 33.98-19.12 33.54-19.29 33.01-19.24L33.01-19.24Q32.03-19.19 31.27-18.7 30.52-18.21 29.9-17.48 29.29-16.75 28.85-15.84 28.42-14.94 28.17-14.06L28.17-14.06Q28.02-13.48 27.95-12.28 27.88-11.08 27.88-9.72L27.88-9.72Q27.83-8.3 27.83-7.03 27.83-5.76 27.73-5.03L27.73-5.03Q27.68-4.25 27.49-3.2 27.29-2.15 26.88-1.22 26.46-0.29 25.78 0.34 25.1 0.98 24.02 0.98L24.02 0.98Q23.19 0.98 22.58 0.49 21.97 0 21.56-0.81 21.14-1.61 20.87-2.69 20.6-3.76 20.46-4.88L20.46-4.88Q20.31-6.05 20.24-7.23 20.16-8.4 20.14-9.45 20.11-10.5 20.14-11.38 20.16-12.26 20.16-12.79L20.16-12.79Q20.11-14.5 19.99-16.24 19.87-17.97 19.87-19.68L19.87-19.68Q19.87-20.75 19.97-22.07 20.07-23.39 20.51-24.54 20.94-25.68 21.8-26.46 22.65-27.25 24.17-27.25L24.17-27.25Q25-27.25 25.58-26.71 26.17-26.17 26.54-25.39 26.9-24.61 27.1-23.73 27.29-22.85 27.34-22.12L27.34-22.12Q28.51-24.02 29.98-25.22 31.44-26.42 33.79-26.51L33.79-26.51Q34.96-26.56 36.11-26.29 37.25-26.03 38.21-25.42 39.16-24.8 39.77-23.83 40.38-22.85 40.43-21.53L40.43-21.53Q40.52-19.97 39.5-19.14 38.47-18.31 37.01-18.26ZM61.91-6.88L61.91-6.88Q61.91-6.01 61.84-4.59 61.76-3.17 61.42-1.83 61.08-0.49 60.35 0.49 59.61 1.46 58.3 1.46L58.3 1.46Q56.49 1.46 55.51 0.29 54.54-0.88 54.58-2.64L54.58-2.64Q53.02-1.27 51.04-0.49 49.07 0.29 47.02 0.29L47.02 0.29Q45.6 0.29 44.33-0.39 43.06-1.07 42.08-2.15 41.11-3.22 40.52-4.57 39.94-5.91 39.94-7.23L39.94-7.23Q39.94-9.57 41.38-11.33 42.82-13.09 44.92-14.33 47.02-15.58 49.38-16.31 51.75-17.04 53.61-17.29L53.61-17.29Q53.61-17.53 53.63-17.72 53.66-17.92 53.66-18.16L53.66-18.16Q53.66-19.68 52.83-20.61 52-21.53 50.48-21.53L50.48-21.53Q49.26-21.53 48.38-21.12 47.5-20.7 46.72-20.19 45.94-19.68 45.16-19.26 44.38-18.85 43.4-18.85L43.4-18.85Q42.33-18.85 41.57-19.53 40.82-20.21 40.82-21.29L40.82-21.29Q40.82-22.9 41.77-24.22 42.72-25.54 44.16-26.44 45.6-27.34 47.29-27.86 48.97-28.37 50.39-28.37L50.39-28.37Q51.7-28.37 53.02-28.05 54.34-27.73 55.51-27.08 56.68-26.42 57.64-25.46 58.59-24.51 59.17-23.24L59.17-23.24Q60.05-21.44 60.59-19.41 61.13-17.38 61.42-15.26 61.71-13.13 61.81-11.01 61.91-8.89 61.91-6.88ZM54.1-8.45L54.1-8.45 53.95-11.77Q53.85-11.77 53.75-11.79 53.66-11.82 53.56-11.82L53.56-11.82Q52.92-11.82 51.97-11.5 51.02-11.18 50.14-10.62 49.26-10.06 48.65-9.38 48.04-8.69 48.04-7.96L48.04-7.96Q48.04-7.28 48.53-7.03 49.02-6.79 49.65-6.79L49.65-6.79Q50.73-6.79 51.95-7.35 53.17-7.91 54.1-8.45ZM85.88-17.48L85.88-17.48Q84.61-14.11 83.1-10.45 81.58-6.79 79.83-3.61L79.83-3.61Q78.75-1.66 77.43-0.37 76.12 0.93 74.41 0.93L74.41 0.93Q73.04 0.93 71.75-0.46 70.45-1.86 69.35-3.78 68.25-5.71 67.45-7.69 66.64-9.67 66.25-10.84L66.25-10.84Q65.86-12.16 65.37-13.67 64.89-15.19 64.49-16.75L64.49-16.75Q64.1-18.31 63.86-19.85 63.62-21.39 63.62-22.75L63.62-22.75Q63.62-24.66 64.3-25.88 64.98-27.1 66.98-27.1L66.98-27.1Q67.77-27.1 68.4-26.64 69.04-26.17 69.57-25.34 70.11-24.51 70.6-23.41 71.09-22.31 71.53-21L71.53-21Q71.97-19.73 72.36-18.36 72.75-16.99 73.14-15.72L73.14-15.72Q73.53-14.45 73.94-13.26 74.36-12.06 75.04-10.89L75.04-10.89Q75.38-11.77 75.82-12.89 76.26-14.01 76.77-15.28 77.29-16.55 77.87-17.9 78.46-19.24 79.14-20.51L79.14-20.51Q80.46-23.14 81.95-25 83.44-26.86 84.9-26.86L84.9-26.86Q86.27-26.86 86.86-26.03 87.44-25.2 87.44-23.88L87.44-23.88Q87.44-22.56 87-20.9 86.56-19.24 85.88-17.48ZM109.61-8.69L109.61-8.69Q109.61-7.03 108.56-5.44 107.51-3.86 105.92-2.61 104.34-1.37 102.53-0.61 100.72 0.15 99.21 0.15L99.21 0.15Q96.62 0.15 94.59-1.15 92.57-2.44 91.2-4.44 89.83-6.45 89.13-8.86 88.42-11.28 88.42-13.57L88.42-13.57Q88.42-16.02 89.1-18.8 89.78-21.58 91.18-23.93 92.57-26.27 94.69-27.83 96.82-29.39 99.75-29.39L99.75-29.39Q101.41-29.39 102.92-28.83 104.43-28.27 105.56-27.25 106.68-26.22 107.36-24.8 108.05-23.39 108.05-21.63L108.05-21.63Q108.05-19.34 107.07-17.33 106.09-15.33 104.48-13.87 102.87-12.4 100.77-11.5 98.67-10.6 96.47-10.5L96.47-10.5Q96.67-9.08 97.62-8.45 98.57-7.81 99.89-7.81L99.89-7.81Q100.87-7.81 101.8-8.3 102.72-8.79 103.6-9.4 104.48-10.01 105.34-10.5 106.19-10.99 107.07-10.99L107.07-10.99Q108.05-10.99 108.83-10.35 109.61-9.72 109.61-8.69ZM101.7-20.65L101.7-20.65Q101.7-21.29 101.36-21.97 101.02-22.66 100.28-22.66L100.28-22.66Q99.21-22.66 98.48-22.09 97.74-21.53 97.26-20.68 96.77-19.82 96.5-18.85 96.23-17.87 96.18-17.04L96.18-17.04Q96.87-17.19 97.82-17.43 98.77-17.68 99.62-18.09 100.48-18.51 101.09-19.14 101.7-19.78 101.7-20.65ZM120.69-29.59L120.69-29.59Q120.69-26.95 120.47-24.29 120.25-21.63 120.25-18.95L120.25-18.95Q120.25-15.48 120.47-12.01 120.69-8.54 120.69-5.03L120.69-5.03Q120.69-4.15 120.59-3.05 120.5-1.95 120.13-1.03 119.76-0.1 119.03 0.54 118.3 1.17 117.08 1.17L117.08 1.17Q115.91 1.17 115.05 0.02 114.2-1.12 113.63-2.91 113.07-4.69 112.71-6.88 112.34-9.08 112.17-11.16 112-13.23 111.93-14.97 111.85-16.7 111.85-17.53L111.85-17.53Q111.85-18.46 111.93-20.21 112-21.97 112.24-24.02 112.49-26.07 112.9-28.2 113.32-30.32 114-32.06 114.68-33.79 115.64-34.89 116.59-35.99 117.91-35.99L117.91-35.99Q118.98-35.99 119.54-35.28 120.1-34.57 120.35-33.57 120.59-32.57 120.64-31.47 120.69-30.37 120.69-29.59ZM145.98-28.86L145.98-28.86Q145.98-25.49 144.32-22.73 142.66-19.97 139.88-18.12L139.88-18.12Q141.34-17.82 142.42-17.11 143.49-16.41 144.2-15.38 144.91-14.36 145.27-13.06 145.64-11.77 145.64-10.35L145.64-10.35Q145.64-7.57 144.35-5.49 143.05-3.42 141-2.08 138.95-0.73 136.44-0.07 133.92 0.59 131.43 0.59L131.43 0.59Q130.06 0.59 128.7 0.39 127.33 0.2 126.11-0.29L126.11-0.29Q125.67-0.44 125.38-1.49 125.08-2.54 124.91-4.05 124.74-5.57 124.64-7.32 124.55-9.08 124.5-10.69 124.45-12.3 124.45-13.53 124.45-14.75 124.45-15.23L124.45-15.23Q124.45-16.94 124.45-18.68 124.45-20.41 124.55-22.12L124.55-22.12Q124.55-22.56 124.57-23.49 124.59-24.41 124.62-25.56 124.64-26.71 124.72-27.98 124.79-29.25 124.91-30.35 125.03-31.45 125.25-32.23 125.47-33.01 125.77-33.2L125.77-33.2Q126.89-33.94 128.26-34.59 129.62-35.25 131.09-35.74 132.55-36.23 134.02-36.52 135.48-36.82 136.8-36.82L136.8-36.82Q138.61-36.82 140.29-36.3 141.98-35.79 143.22-34.77 144.47-33.74 145.22-32.25 145.98-30.76 145.98-28.86ZM137.88-26.27L137.88-26.27Q137.88-27.1 137.36-27.49 136.85-27.88 136.02-27.88L136.02-27.88Q135.34-27.88 134.58-27.59 133.82-27.29 133.29-26.81L133.29-26.81Q133.14-26.66 133.02-25.98 132.9-25.29 132.82-24.44 132.75-23.58 132.72-22.83 132.7-22.07 132.7-21.83L132.7-21.83Q132.7-21.73 132.7-21.51 132.7-21.29 132.72-21.04 132.75-20.8 132.8-20.61 132.85-20.41 132.94-20.41L132.94-20.41Q133.77-20.41 134.65-21.02 135.53-21.63 136.24-22.53 136.95-23.44 137.41-24.46 137.88-25.49 137.88-26.27ZM137.68-12.16L137.68-12.16Q137.68-12.99 137.09-13.33 136.51-13.67 135.78-13.67L135.78-13.67Q135.09-13.67 134.34-13.35 133.58-13.04 133.09-12.6L133.09-12.6Q132.94-12.5 132.87-12.11 132.8-11.72 132.77-11.25 132.75-10.79 132.72-10.38 132.7-9.96 132.7-9.81L132.7-9.81Q132.7-9.72 132.7-9.42 132.7-9.13 132.72-8.81 132.75-8.5 132.82-8.23 132.9-7.96 132.99-7.96L132.99-7.96Q133.68-7.96 134.51-8.35 135.34-8.74 136.04-9.33 136.75-9.91 137.22-10.67 137.68-11.43 137.68-12.16ZM169.56-13.96L169.56-13.96Q169.56-11.28 169.03-8.64 168.49-6.01 167.22-3.93 165.95-1.86 163.83-0.59 161.7 0.68 158.53 0.68L158.53 0.68Q155.4 0.68 153.3-0.56 151.2-1.81 149.96-3.86 148.71-5.91 148.2-8.5 147.69-11.08 147.69-13.77L147.69-13.77Q147.69-16.7 148.37-19.58L148.37-19.58Q148.52-20.36 148.93-21.75 149.35-23.14 150.01-24.49 150.67-25.83 151.52-26.81 152.38-27.78 153.4-27.78L153.4-27.78Q154.38-27.78 154.96-27.25 155.55-26.71 155.89-25.9 156.23-25.1 156.33-24.19 156.43-23.29 156.43-22.56L156.43-22.56Q156.43-21.44 156.26-20.36 156.09-19.29 155.89-18.21L155.89-18.21Q155.7-16.75 155.52-15.28 155.35-13.82 155.35-12.35L155.35-12.35Q155.35-11.62 155.43-10.72 155.5-9.81 155.79-8.98 156.09-8.15 156.62-7.59 157.16-7.03 158.14-7.03L158.14-7.03Q159.41-7.03 160.16-7.71 160.92-8.4 161.29-9.42 161.65-10.45 161.75-11.62 161.85-12.79 161.85-13.77L161.85-13.77Q161.85-15.92 161.55-17.99 161.26-20.07 161.02-22.22L161.02-22.22Q160.97-22.46 160.97-22.9L160.97-22.9Q160.97-23.63 161.21-24.37 161.46-25.1 161.9-25.68 162.34-26.27 162.97-26.64 163.61-27 164.39-27L164.39-27Q165.46-27 166.29-26.25 167.12-25.49 167.68-24.29 168.24-23.1 168.61-21.61 168.98-20.12 169.2-18.68 169.42-17.24 169.49-15.97 169.56-14.7 169.56-13.96ZM193.58-32.13L193.58-32.13Q193.58-28.56 193.31-25.05 193.05-21.53 193.05-17.97L193.05-17.97Q193.05-15.09 193.22-12.26 193.39-9.42 193.39-6.54L193.39-6.54Q193.39-5.76 193.34-4.66 193.29-3.56 193.02-2.54 192.75-1.51 192.14-0.78 191.53-0.05 190.41-0.05L190.41-0.05Q188.94-0.05 187.99-1.15 187.04-2.25 186.8-3.61L186.8-3.61Q185.87-1.86 184.11-0.63 182.35 0.59 180.3 0.59L180.3 0.59Q178.11 0.59 176.52-0.93 174.93-2.44 173.88-4.59 172.83-6.74 172.32-9.08 171.81-11.43 171.81-13.13L171.81-13.13Q171.81-14.36 171.95-15.92 172.1-17.48 172.47-19.09 172.83-20.7 173.42-22.24 174-23.78 174.91-25 175.81-26.22 177.06-26.95 178.3-27.69 179.91-27.69L179.91-27.69Q181.67-27.69 183.28-26.66 184.89-25.63 185.72-24.12L185.72-24.12 186.16-31.88Q186.21-32.81 186.31-34.06 186.41-35.3 186.72-36.43 187.04-37.55 187.72-38.33 188.41-39.11 189.73-39.11L189.73-39.11Q191.14-39.11 191.92-38.43 192.7-37.74 193.07-36.69 193.44-35.64 193.51-34.42 193.58-33.2 193.58-32.13ZM185.62-10.06L185.62-10.45Q185.62-11.57 185.58-12.65 185.53-13.72 185.58-14.84L185.58-14.84Q185.28-15.48 184.89-16.24 184.5-16.99 183.94-17.65 183.38-18.31 182.69-18.75 182.01-19.19 181.23-19.19L181.23-19.19Q180.35-19.19 179.81-18.65 179.28-18.12 179.03-17.36 178.79-16.6 178.72-15.72 178.64-14.84 178.64-14.21L178.64-14.21Q178.64-13.62 178.74-12.48 178.84-11.33 179.11-10.16 179.37-8.98 179.86-8.11 180.35-7.23 181.18-7.23L181.18-7.23Q181.82-7.23 182.45-7.5 183.09-7.76 183.65-8.18 184.21-8.59 184.72-9.11 185.23-9.62 185.62-10.06L185.62-10.06Z" opacity="1" transform="matrix(1,0,0,1,0,0)" fill="#5eb1bf" class="undefined-text-0" data-fill-palette-color="primary" id="text-0"></path></svg></g></svg></g></svg></g></svg></g><g transform="matrix(1,0,0,1,125.66448927446274,0)"><svg viewBox="0 0 146.16862145107444 113.24163059760957" height="113.24163059760957" width="146.16862145107444"><g><svg xmlns="http://www.w3.org/2000/svg" xmlns:xlink="http://www.w3.org/1999/xlink" version="1.1" x="8" y="0" viewBox="0 3.6469998359680176 50.30800247192383 43.7660026550293" enable-background="new 0 0 50.4 50.4" xml:space="preserve" width="130.16862145107444" height="113.24163059760957" class="icon-icon-0" data-fill-palette-color="accent" id="icon-0"><g fill="#ef7b45" data-fill-palette-color="accent"><path d="M7.788 22.343c-0.213-0.099-0.476-0.006-0.577 0.213-0.334 0.72-0.502 1.493-0.502 2.297 0 0.74 0.144 1.458 0.43 2.134 0.07 0.166 0.232 0.265 0.401 0.265 0.057 0 0.113-0.01 0.169-0.034 0.222-0.093 0.325-0.349 0.231-0.57-0.24-0.566-0.362-1.171-0.362-1.794 0-0.676 0.142-1.327 0.422-1.932C8.102 22.703 8.007 22.443 7.788 22.343z" fill="#ef7b45" data-fill-palette-color="accent"></path><path d="M30.185 40.639c-0.104 0-0.21-0.024-0.308-0.081l-6.694-3.791c-0.303-0.172-0.409-0.556-0.238-0.859 0.173-0.301 0.555-0.407 0.858-0.237l6.693 3.792c0.303 0.171 0.409 0.556 0.237 0.858C30.618 40.524 30.404 40.639 30.185 40.639L30.185 40.639z" fill="#ef7b45" data-fill-palette-color="accent"></path><path d="M46.388 11.626h-5.543V9.292h-3.501v2.333h-5.126V7.303c0-2.017-1.64-3.656-3.657-3.656h-7.109c-2.018 0-3.658 1.639-3.658 3.656v4.323h-5.281V9.292H9.012v2.333h-5.09C1.756 11.626 0 13.382 0 15.547v27.945c0 2.165 1.756 3.921 3.921 3.921h42.466c2.165 0 3.921-1.756 3.921-3.921V15.547C50.309 13.382 48.553 11.626 46.388 11.626zM20.672 7.303c0-0.429 0.349-0.778 0.78-0.778h7.109c0.431 0 0.78 0.349 0.78 0.778v4.323h-8.669V7.303zM12.188 31.53c-3.688 0-6.678-2.99-6.678-6.678s2.99-6.679 6.678-6.679c3.688 0 6.678 2.991 6.678 6.679S15.876 31.53 12.188 31.53zM32.662 43.963l-13.979-7.849 14.338-8.19L32.662 43.963zM37.737 26.859l-9.392-3.889c0 0-0.927-0.384-1.753-0.728-0.55-0.227-1.675-1.256-1.382-1.912 0.213-0.591 1.64-0.582 2.195-0.351 1.837 0.738 4.307 1.786 4.307 1.786l7.547-2.791 0.68 0.908-3.495 3.858c0 0 5.444 2.25 6.082 2.512C43.08 26.482 39.437 27.246 37.737 26.859zM43.363 25.824l-2.354-0.985 3.559-1.474 0.524 0.598L43.363 25.824z" fill="#ef7b45" data-fill-palette-color="accent"></path><path d="M8.692 28.543c0.917 0.904 2.174 1.464 3.562 1.464 2.803 0 5.078-2.274 5.078-5.077 0-0.029-0.005-0.057-0.005-0.085L8.692 28.543z" fill="#ef7b45" data-fill-palette-color="accent"></path><polygon points="14.875,24.706 14.391,20.128 9.285,27.176  " fill="#ef7b45" data-fill-palette-color="accent"></polygon><polygon points="24.618,34.901 31.165,31.184 30.747,38.263 28.723,35.229  " fill="#ef7b45" data-fill-palette-color="accent"></polygon><polygon points="12.099,21.767 10.9,20.625 10.192,21.113 9.974,24.924  " fill="#ef7b45" data-fill-palette-color="accent"></polygon></g></svg></g></svg></g><g><rect width="49.13136927446277" height="7.389469690778008" y="104.85216090683156" x="271.83311072553715" fill="#cdedf6" data-fill-palette-color="secondary"></rect><rect width="49.13136927446277" height="7.389469690778008" y="104.85216090683156" x="76.53311999999997" fill="#cdedf6" data-fill-palette-color="secondary"></rect></g></svg></g></svg></g><defs><mask id="731e0409-652f-4871-ad27-2dc4141144c2"><rect width="640" height="400" fill="white"></rect><rect width="348.05760000000004" height="81.3339259016857" fill="black" x="145.97119999999998" y="159.33303704915716" id="transform-me" transform="matrix(1,0,0,1,-122.24000000000001,-81.35871909472516)"></rect></mask><mask id="57bdc1c7-665a-427e-ad6d-05728c3ca85c"><rect width="640" height="400" fill="white"></rect><rect width="348.05760000000004" height="81.3339259016857" fill="black" x="145.97119999999998" y="159.33303704915716" id="transform-me" transform="matrix(1,0,0,1,-122.24000000000001,-81.35871909472516)"></rect></mask></defs></svg><rect width="395.52" height="240.05952406281457" fill="none" stroke="none" visibility="hidden"></rect></g></svg></g></svg>